<svg xmlns:xlink="http://www.w3.org/1999/xlink" xmlns="http://www.w3.org/2000/svg" width="90" height="102" viewBox="0 0 90 102" fill="none">
<g filter="url(#filter0_d)">
<path fill-rule="evenodd" clip-rule="evenodd" d="M52.5087 64.7727C64.8851 61.4786 74 50.2367 74 36.875C74 20.9278 61.0163 8 45 8C28.9837 8 16 20.9278 16 36.875C16 50.2367 25.1149 61.4787 37.4914 64.7728L45 78L52.5087 64.7727Z" fill="white"/>
</g>
<circle cx="45.1667" cy="37" r="23" fill="#502314"/>
<path fill-rule="evenodd" clip-rule="evenodd" d="M32.209 30.5069H57.7904C58.2941 30.5069 58.5193 30.248 58.5198 29.7812C58.5198 27.0165 54.2591 22.1346 45 22.1346C35.6539 22.1346 31.4802 27.0165 31.4802 29.7812C31.4802 30.248 31.7059 30.5069 32.209 30.5069ZM50.588 39.2077V44.5907C50.588 45.4461 50.0849 46.1286 49.1735 46.1286C48.6441 46.1286 48.1494 45.9212 47.6896 45.0311L46.4834 42.707C46.3964 42.5427 46.3358 42.4996 46.2493 42.4996C46.128 42.4996 46.0668 42.5863 46.0668 42.7848L46.0753 44.6684C46.0753 45.4806 45.6065 46.1286 44.7305 46.1286C43.8629 46.1286 43.3941 45.4806 43.3941 44.6684V39.2856C43.3941 38.4302 43.8972 37.7475 44.8085 37.7475C45.3554 37.7475 45.8327 37.9549 46.2925 38.8449L47.4987 41.1691C47.5856 41.3334 47.6464 41.3765 47.7328 41.3765C47.8541 41.3765 47.9153 41.2898 47.9153 41.0914L47.9069 39.2077C47.9069 38.3955 48.3756 37.7475 49.2516 37.7475C50.1197 37.7475 50.588 38.3955 50.588 39.2077ZM57.7123 38.4212C57.1829 38.0326 56.3848 37.7475 55.2563 37.7475C53.2343 37.7475 51.2646 39.0177 51.2646 41.9725C51.2646 44.798 53.2343 46.1196 55.1782 46.1196C57.2177 46.1196 58.5102 44.8668 58.5102 43.0353C58.5102 41.8775 57.7813 41.074 56.3148 41.074H55.8897C55.126 41.074 54.536 41.4284 54.536 42.2061C54.536 42.9145 55.1782 43.2516 55.6556 43.2516C56.0632 43.2516 56.2283 43.3209 56.2283 43.502C56.2283 43.7267 56.0115 43.8737 55.4821 43.8737C54.5016 43.8737 53.8335 43.2085 53.8335 41.9729C53.8335 40.5993 54.7448 40.0978 55.4473 40.0978C55.9154 40.0978 56.1697 40.2261 56.401 40.343C56.5942 40.4405 56.7715 40.53 57.0441 40.53C57.7381 40.53 58.207 39.9681 58.207 39.3979C58.207 38.9741 58.016 38.6459 57.7123 38.4212ZM34.3265 43.2253V44.599C34.3265 45.4455 33.8234 46.1282 32.9131 46.1286C31.9934 46.1286 31.4987 45.4465 31.4987 44.5995V39.277C31.4987 38.4306 31.9934 37.7479 32.9131 37.7479C33.8244 37.7479 34.3275 38.4302 34.3275 39.277V40.34C34.3275 40.4607 34.3797 40.5384 34.4926 40.5384C34.5617 40.5384 34.6049 40.5216 34.6919 40.435C34.915 40.2129 35.1667 39.7518 35.4264 39.2763C35.5708 39.0119 35.7176 38.743 35.8633 38.5083C36.1665 38.0158 36.6179 37.7479 37.0952 37.7479C37.8415 37.7479 38.527 38.335 38.527 39.087C38.527 39.381 38.4226 39.7355 38.1711 40.124C37.8415 40.634 37.2429 41.1953 36.9998 41.4201C36.8959 41.5151 36.8437 41.5844 36.8437 41.6794C36.8437 41.7141 36.8526 41.7918 36.9307 41.9125C37.139 42.2324 37.7117 42.9233 38.1974 43.4506C38.5792 43.865 38.7786 44.2104 38.7786 44.6773C38.7786 45.4287 38.1015 46.1286 37.2946 46.1286C36.8173 46.1286 36.3659 45.8782 36.0015 45.4807C35.5718 45.0113 35.1972 44.2165 34.9268 43.6427C34.8587 43.4982 34.7973 43.3677 34.7431 43.26C34.7354 43.2462 34.7276 43.2296 34.7192 43.2117C34.6804 43.129 34.6284 43.0179 34.5 43.0179C34.3787 43.0179 34.3265 43.1046 34.3265 43.2253ZM57.7904 47.0009C58.2936 47.0009 58.5192 47.243 58.5192 47.6661C58.5192 48.4092 57.8336 49.4462 56.4799 50.2066C54.2237 51.4769 50.3534 51.8397 44.9995 51.8397C39.6455 51.8397 35.7756 51.4769 33.5195 50.2066C32.1657 49.4462 31.4802 48.4092 31.4802 47.6661C31.4802 47.243 31.7059 47.0009 32.209 47.0009H57.7904ZM47.8025 31.4746C48.6616 31.4746 49.2342 31.7335 49.4427 31.8979C49.6425 32.0533 49.7722 32.2434 49.7718 32.5374C49.7718 32.9349 49.4595 33.3151 48.9996 33.3151C48.818 33.3151 48.6992 33.2704 48.5698 33.2217C48.4148 33.1634 48.2444 33.0993 47.9322 33.0993C47.464 33.0993 46.8564 33.4448 46.8564 34.3952C46.8564 35.3283 47.273 35.8466 47.9496 35.8466C48.2793 35.8466 48.4617 35.7085 48.4617 35.5011C48.4617 35.3452 48.3315 35.2417 48.1058 35.2417C47.7497 35.2417 47.3247 35.0081 47.3247 34.5244C47.3247 33.9804 47.7239 33.7383 48.2361 33.7383H48.5139C49.4859 33.7383 49.9717 34.2913 49.9717 35.0947C49.9717 36.3911 49.1126 37.2549 47.7503 37.2549C46.4576 37.2549 45.1471 36.3481 45.1471 34.3952C45.1471 32.3558 46.4576 31.4746 47.8025 31.4746ZM44.2016 34.8526C44.2707 35.0947 44.6351 35.561 44.7828 35.7427C44.9389 35.9417 45.0607 36.1575 45.0607 36.4511C45.0607 36.8916 44.6704 37.2461 44.219 37.2461C43.9411 37.2461 43.6632 37.1248 43.3684 36.7362C43.1456 36.4485 43.0326 35.8951 42.9549 35.5146L42.9433 35.4575C42.9174 35.3363 42.8652 35.2328 42.7439 35.2328C42.6052 35.2328 42.553 35.3279 42.553 35.4575V36.313C42.553 36.8312 42.2492 37.2461 41.6939 37.2461C41.1386 37.2461 40.8348 36.8312 40.8348 36.313V32.4592C40.8348 31.9236 41.1644 31.5261 41.85 31.5261H42.8304C43.9321 31.5261 44.8434 32.1226 44.8434 33.3062C44.8434 33.9972 44.5312 34.3863 44.2623 34.6368C44.1842 34.7056 44.1757 34.766 44.2016 34.8526ZM33.4673 34.8184H33.2242C33.077 34.8184 33.0074 34.9046 33.0074 35.0179V35.709C33.0074 35.8209 33.0766 35.9074 33.2242 35.9074H33.4673C33.8576 35.9074 33.9704 35.6224 33.9704 35.363C33.9704 35.1036 33.8576 34.8184 33.4673 34.8184ZM33.2242 33.7987C33.0766 33.7987 33.0074 33.712 33.0074 33.6002V33.0126C33.0074 32.9002 33.077 32.8141 33.2242 32.8141H33.4236C33.7706 32.8141 33.875 33.0645 33.875 33.3066C33.875 33.5398 33.7711 33.7992 33.4236 33.7992H33.2242V33.7987ZM33.7189 37.2029H32.4954C31.8098 37.2029 31.4802 36.8055 31.4802 36.2698V32.4597C31.4802 31.9241 31.8098 31.5266 32.4954 31.5266H33.528C34.6212 31.5266 35.3675 32.0795 35.3675 33.1166C35.3675 33.5745 35.185 33.9027 34.9941 34.0928L34.9941 34.0928C34.9419 34.1448 34.9245 34.1621 34.9245 34.2051C34.9245 34.2389 34.9673 34.2732 35.0101 34.3075L35.0115 34.3086L35.0277 34.3218C35.1564 34.4259 35.5758 34.7653 35.5758 35.4749C35.5758 36.4342 34.8728 37.2029 33.7189 37.2029ZM42.7955 34.0838H42.5872C42.4395 34.0838 42.3704 33.9972 42.3704 33.8853V33.1423C42.3704 33.0299 42.44 32.9606 42.5872 32.9606H42.7955C43.2206 32.9606 43.3508 33.2457 43.3508 33.5135C43.3508 33.764 43.2211 34.0838 42.7955 34.0838ZM52.254 35.7169C52.1068 35.7169 52.0373 35.6308 52.0373 35.5184V35.2407C52.0373 35.1288 52.1064 35.0422 52.254 35.0422H52.8526C53.2692 35.0422 53.5989 34.7917 53.5989 34.3512C53.5989 33.9106 53.2692 33.6601 52.8526 33.6601H52.254C52.1068 33.6601 52.0373 33.574 52.0373 33.4616V33.2111C52.0373 33.0993 52.1064 33.0126 52.254 33.0126H53.0957C53.5467 33.0126 53.9026 32.7448 53.9026 32.2696C53.9026 31.7944 53.5471 31.5266 53.0957 31.5266H51.4381C50.7525 31.5266 50.423 31.9241 50.423 32.4597V36.2698C50.423 36.8055 50.7525 37.2029 51.4381 37.2029H53.0957C53.5467 37.2029 53.9026 36.9352 53.9026 36.46C53.9026 35.9847 53.5471 35.7169 53.0957 35.7169H52.254ZM56.2546 34.0838H56.0464C55.8987 34.0838 55.8296 33.9972 55.8296 33.8853V33.1423C55.8296 33.0299 55.8993 32.9606 56.0464 32.9606H56.2546C56.6798 32.9606 56.81 33.2457 56.81 33.5135C56.81 33.764 56.6798 34.0838 56.2546 34.0838ZM54.2934 36.313C54.2934 36.8312 54.5971 37.2461 55.1525 37.2461C55.7078 37.2461 56.0116 36.8312 56.0116 36.313V35.4575C56.0116 35.3279 56.0638 35.2328 56.2024 35.2328C56.3239 35.2328 56.3761 35.3363 56.4019 35.4575C56.4715 35.8377 56.5928 36.4338 56.8269 36.7362C57.1218 37.1248 57.3997 37.2461 57.6776 37.2461C58.1289 37.2461 58.5192 36.8916 58.5192 36.4511C58.5192 36.1575 58.398 35.9411 58.2414 35.7427C58.0937 35.561 57.7292 35.0947 57.6601 34.8526C57.6343 34.766 57.6427 34.7056 57.7208 34.6368C57.9898 34.3863 58.302 33.9972 58.302 33.3062C58.302 32.1226 57.3907 31.5261 56.289 31.5261H55.3085C54.6231 31.5261 54.2934 31.9236 54.2934 32.4592V36.313ZM35.984 35.3541C35.984 36.408 36.7213 37.2461 38.1273 37.2461C39.5332 37.2461 40.2795 36.408 40.2795 35.3541V32.4424C40.2795 31.9241 39.9757 31.5093 39.4204 31.5093C38.865 31.5093 38.5613 31.9241 38.5613 32.4424V35.259C38.5613 35.4664 38.4395 35.7085 38.1273 35.7085C37.8145 35.7085 37.7106 35.4664 37.7106 35.259V32.4424C37.7106 31.9241 37.3984 31.5093 36.8431 31.5093C36.2878 31.5093 35.984 31.9241 35.984 32.4424V35.3541ZM40.8864 37.7475C41.8584 37.7475 42.3879 38.4732 42.3879 39.3806V44.4955C42.3879 45.4029 41.8584 46.1286 40.8864 46.1286C39.9145 46.1286 39.385 45.4029 39.385 44.4955V39.3806C39.385 38.4732 39.9145 37.7475 40.8864 37.7475Z" fill="#F5EBDC"/>
<defs>
<filter id="filter0_d" x="0" y="0" width="90" height="102" filterUnits="userSpaceOnUse" color-interpolation-filters="sRGB">
<feFlood flood-opacity="0" result="BackgroundImageFix"/>
<feColorMatrix in="SourceAlpha" type="matrix" values="0 0 0 0 0 0 0 0 0 0 0 0 0 0 0 0 0 0 127 0"/>
<feOffset dy="8"/>
<feGaussianBlur stdDeviation="8"/>
<feColorMatrix type="matrix" values="0 0 0 0 0 0 0 0 0 0 0 0 0 0 0 0 0 0 0.2 0"/>
<feBlend mode="normal" in2="BackgroundImageFix" result="effect1_dropShadow"/>
<feBlend mode="normal" in="SourceGraphic" in2="effect1_dropShadow" result="shape"/>
</filter>
</defs>
</svg>