<svg xmlns:xlink="http://www.w3.org/1999/xlink" xmlns="http://www.w3.org/2000/svg" width="93" height="93" viewBox="5 5 92 92" fill="none">
<g filter="url(#filter0_f_11571_62074)">
<ellipse cx="51" cy="89" rx="8" ry="3" fill="#B3B2B0"/>
</g>
<rect x="49" y="73" width="4" height="16" rx="2" fill="#4A4948"/>
<g filter="url(#filter1_d_11571_62074)">
<path d="M75 51C75 64.2548 64.2548 75 51 75C37.7452 75 27 64.2548 27 51C27 37.7452 37.7452 27 51 27C64.2548 27 75 37.7452 75 51Z" fill="#6B6A68"/>
</g>
<g filter="url(#filter2_d_11571_62074)">
<path d="M66.9533 47.117C66.2686 46.93 65.4052 46.7626 64.3334 46.7626C58.6966 46.7626 57.2675 49.9223 57.0293 52.0681C56.7713 54.4797 58.4485 56.8322 62.5868 56.8322C64.3334 56.8322 65.4647 56.527 65.8716 56.3991C65.9709 56.3695 66.0503 56.281 66.0701 56.1825L66.2984 54.9718C66.338 54.7848 66.1594 54.6372 65.9808 54.6962C65.5342 54.834 64.7304 55.0309 63.7181 55.0309C61.7432 55.0309 60.3142 53.8497 60.4928 51.822C60.6714 49.8632 62.0013 48.3671 63.8372 48.3671C64.9388 48.3671 65.435 48.938 65.3953 49.7057C65.3953 49.7057 65.3953 49.7156 65.3953 49.7451C65.3853 49.8829 65.5044 50.001 65.6434 50.001H66.3976C66.5167 50.001 66.6159 49.9223 66.6358 49.814L67.1617 47.4615C67.1915 47.304 67.1022 47.1564 66.9533 47.117Z" fill="url(#paint0_linear_11571_62074)"/>
<path d="M43.622 47.117L43.4831 47.7273C43.4533 47.8651 43.5327 48.0029 43.6716 48.0423C43.9098 48.1308 43.9594 48.3572 43.751 48.5344L40.2876 51.3889L40.883 48.7017C40.9822 48.2883 41.3196 48.121 41.5281 48.0521C41.538 48.0521 41.5479 48.0423 41.5578 48.0423C41.6471 48.0127 41.7166 47.9438 41.7365 47.8454L41.8754 47.2056C41.9052 47.0579 41.796 46.9103 41.6372 46.9103H37.1714C37.0424 46.9103 36.9332 46.9989 36.9134 47.117L36.7645 47.7667C36.7348 47.8946 36.8142 48.0324 36.9432 48.0718C36.9729 48.0816 36.9829 48.0816 36.9829 48.0915C37.2607 48.1997 37.5882 48.4458 37.4493 49.0856L36.3874 53.9186C36.1096 55.2376 35.653 55.5132 35.2263 55.5624H35.2164C35.0973 55.5723 35.008 55.6608 34.9782 55.7691L34.8393 56.3892C34.7996 56.5467 34.9286 56.7042 35.0874 56.7042H39.7814C39.9005 56.7042 39.9998 56.6255 40.0196 56.5172L40.1784 55.7888C40.2082 55.6707 40.1387 55.5526 40.0295 55.5034C40.0196 55.5034 40.0097 55.4935 39.9998 55.4935C39.7616 55.3951 39.4341 55.1982 39.5234 54.8143L40.0692 52.3437C41.9349 55.7298 42.5601 56.7042 44.803 56.7042H46.8275C46.9466 56.7042 47.0458 56.6255 47.0656 56.5172L47.2046 55.8872C47.2443 55.7298 47.1252 55.5723 46.9565 55.5723C46.4504 55.5624 46.2023 55.4443 45.6961 54.8045L43.096 51.3102L46.4801 48.5246C46.9366 48.1702 47.4825 48.0718 47.7901 48.0324C47.7901 48.0324 47.8 48.0324 47.8199 48.0324C47.929 48.0226 48.0183 47.9438 48.0382 47.8454L48.1771 47.2253C48.2069 47.0678 48.0977 46.93 47.939 46.93H43.8701C43.761 46.9103 43.6518 46.9989 43.622 47.117Z" fill="url(#paint1_linear_11571_62074)"/>
<path d="M56.1362 49.8042H56.9301C57.0492 49.8042 57.1484 49.7254 57.1683 49.6171L57.7042 47.2154C57.7339 47.0579 57.6248 46.9201 57.466 46.9201H49.1497C49.0207 46.9201 48.9115 47.0087 48.8817 47.1268L48.7329 47.7666C48.7031 47.8946 48.7726 48.0225 48.9016 48.0619C48.9115 48.0619 48.9214 48.0718 48.9313 48.0718C49.2092 48.18 49.5863 48.436 49.4176 49.0856L47.7901 56.4089C47.7603 56.5565 47.8695 56.7042 48.0283 56.7042H51.7696C51.8887 56.7042 51.9879 56.6254 52.0078 56.5172L52.1666 55.7888C52.1864 55.6805 52.1368 55.5722 52.0376 55.523C52.0276 55.5132 52.0177 55.5132 51.9979 55.5033C51.7597 55.3852 51.4123 55.1194 51.5215 54.6076C51.5314 54.5387 51.8887 52.954 51.8887 52.954H55.0644C55.1835 52.954 55.2827 52.8752 55.3026 52.7669L55.6003 51.4283C55.6301 51.2708 55.5209 51.133 55.3621 51.133H52.2956L52.8712 48.5442H55.0148C55.7094 48.5442 55.9178 48.8986 55.8782 49.5187C55.8782 49.5187 55.8782 49.5285 55.8782 49.5482C55.8682 49.6762 55.9873 49.8042 56.1362 49.8042Z" fill="url(#paint2_linear_11571_62074)"/>
</g>
<defs>
<filter id="filter0_f_11571_62074" x="39" y="82" width="24" height="14" filterUnits="userSpaceOnUse" color-interpolation-filters="sRGB">
<feFlood flood-opacity="0" result="BackgroundImageFix"/>
<feBlend mode="normal" in="SourceGraphic" in2="BackgroundImageFix" result="shape"/>
<feGaussianBlur stdDeviation="2" result="effect1_foregroundBlur_11571_62074"/>
</filter>
<filter id="filter1_d_11571_62074" x="0" y="0" width="102" height="102" filterUnits="userSpaceOnUse" color-interpolation-filters="sRGB">
<feFlood flood-opacity="0" result="BackgroundImageFix"/>
<feColorMatrix in="SourceAlpha" type="matrix" values="0 0 0 0 0 0 0 0 0 0 0 0 0 0 0 0 0 0 127 0" result="hardAlpha"/>
<feMorphology radius="3" operator="erode" in="SourceAlpha" result="effect1_dropShadow_11571_62074"/>
<feOffset/>
<feGaussianBlur stdDeviation="15"/>
<feComposite in2="hardAlpha" operator="out"/>
<feColorMatrix type="matrix" values="0 0 0 0 0 0 0 0 0 0 0 0 0 0 0 0 0 0 0.2 0"/>
<feBlend mode="normal" in2="BackgroundImageFix" result="effect1_dropShadow_11571_62074"/>
<feBlend mode="normal" in="SourceGraphic" in2="effect1_dropShadow_11571_62074" result="shape"/>
</filter>
<filter id="filter2_d_11571_62074" x="29.832" y="44.7626" width="48.335" height="26.0695" filterUnits="userSpaceOnUse" color-interpolation-filters="sRGB">
<feFlood flood-opacity="0" result="BackgroundImageFix"/>
<feColorMatrix in="SourceAlpha" type="matrix" values="0 0 0 0 0 0 0 0 0 0 0 0 0 0 0 0 0 0 127 0" result="hardAlpha"/>
<feOffset dx="3" dy="6"/>
<feGaussianBlur stdDeviation="4"/>
<feColorMatrix type="matrix" values="0 0 0 0 0 0 0 0 0 0 0 0 0 0 0 0 0 0 0.09 0"/>
<feBlend mode="normal" in2="BackgroundImageFix" result="effect1_dropShadow_11571_62074"/>
<feBlend mode="normal" in="SourceGraphic" in2="effect1_dropShadow_11571_62074" result="shape"/>
</filter>
<linearGradient id="paint0_linear_11571_62074" x1="48.3394" y1="46.9201" x2="57.9164" y2="48.0003" gradientUnits="userSpaceOnUse">
<stop stop-color="white"/>
<stop offset="1" stop-color="#F3F3F3"/>
</linearGradient>
<linearGradient id="paint1_linear_11571_62074" x1="48.3394" y1="46.9201" x2="57.9164" y2="48.0003" gradientUnits="userSpaceOnUse">
<stop stop-color="white"/>
<stop offset="1" stop-color="#F3F3F3"/>
</linearGradient>
<linearGradient id="paint2_linear_11571_62074" x1="48.3394" y1="46.9201" x2="57.9164" y2="48.0003" gradientUnits="userSpaceOnUse">
<stop stop-color="white"/>
<stop offset="1" stop-color="#F3F3F3"/>
</linearGradient>
</defs>
</svg>