<svg xmlns:xlink="http://www.w3.org/1999/xlink" xmlns="http://www.w3.org/2000/svg" width="93" height="93" viewBox="5 5 92 92" fill="none">
<g filter="url(#filter0_f_10824_58699)">
<ellipse cx="51" cy="89" rx="8" ry="3" fill="#B3B2B0"/>
</g>
<rect x="49" y="73" width="4" height="16" rx="2" fill="#CA0013"/>
<g filter="url(#filter1_d_10824_58699)">
<path d="M75 51C75 64.2548 64.2548 75 51 75C37.7452 75 27 64.2548 27 51C27 37.7452 37.7452 27 51 27C64.2548 27 75 37.7452 75 51Z" fill="#E4002B"/>
</g>
<g filter="url(#filter2_d_10824_58699)">
<path d="M67.6315 46.74C66.9177 46.5451 66.0176 46.3706 64.9003 46.3706C59.024 46.3706 57.5342 49.6645 57.2859 51.9015C57.0169 54.4155 58.7653 56.868 63.0794 56.868C64.9003 56.868 66.0797 56.5499 66.5039 56.4165C66.6073 56.3857 66.6901 56.2933 66.7108 56.1907L66.9487 54.9286C66.9901 54.7336 66.8039 54.5797 66.6177 54.6412C66.1521 54.7849 65.3141 54.9901 64.2588 54.9901C62.2001 54.9901 60.7103 53.7588 60.8965 51.6449C61.0827 49.6029 62.4691 48.0432 64.383 48.0432C65.5314 48.0432 66.0486 48.6384 66.0073 49.4388C66.0073 49.4388 66.0073 49.449 66.0073 49.4798C65.9969 49.6235 66.1211 49.7466 66.2659 49.7466H67.0522C67.1763 49.7466 67.2798 49.6645 67.3005 49.5516L67.8488 47.0992C67.8798 46.935 67.7867 46.7811 67.6315 46.74Z" fill="url(#paint0_linear_10824_58699)"/>
<path d="M43.3089 46.74L43.1641 47.3762C43.1331 47.5199 43.2158 47.6636 43.3607 47.7046C43.609 47.7969 43.6607 48.033 43.4434 48.2177L39.8328 51.1935L40.4536 48.3921C40.557 47.9611 40.9088 47.7867 41.126 47.7149C41.1364 47.7149 41.1467 47.7046 41.1571 47.7046C41.2502 47.6738 41.3226 47.602 41.3433 47.4994L41.4881 46.8324C41.5192 46.6785 41.4054 46.5245 41.2398 46.5245H36.5843C36.4498 46.5245 36.336 46.6169 36.3153 46.74L36.1601 47.4173C36.1291 47.5507 36.2118 47.6943 36.3463 47.7354C36.3774 47.7456 36.3877 47.7456 36.3877 47.7559C36.6774 47.8688 37.0188 48.1253 36.874 48.7923L35.767 53.8306C35.4773 55.2056 35.0014 55.4929 34.5565 55.5443H34.5462C34.4221 55.5545 34.3289 55.6469 34.2979 55.7597L34.1531 56.4062C34.1117 56.5704 34.2462 56.7346 34.4117 56.7346H39.3052C39.4293 56.7346 39.5328 56.6525 39.5535 56.5396L39.719 55.7803C39.7501 55.6571 39.6776 55.534 39.5638 55.4827C39.5535 55.4827 39.5431 55.4724 39.5328 55.4724C39.2845 55.3698 38.9431 55.1646 39.0362 54.7644L39.6052 52.1888C41.5502 55.7187 42.202 56.7346 44.5401 56.7346H46.6506C46.7747 56.7346 46.8782 56.6525 46.8989 56.5396L47.0437 55.8829C47.0851 55.7187 46.961 55.5545 46.7851 55.5545C46.2575 55.5443 45.9988 55.4211 45.4712 54.7541L42.7606 51.1114L46.2885 48.2074C46.7644 47.838 47.3334 47.7354 47.6541 47.6943C47.6541 47.6943 47.6645 47.6943 47.6851 47.6943C47.7989 47.6841 47.8921 47.602 47.9128 47.4994L48.0576 46.8529C48.0886 46.6887 47.9748 46.5451 47.8093 46.5451H43.5676C43.4538 46.5245 43.34 46.6169 43.3089 46.74Z" fill="url(#paint1_linear_10824_58699)"/>
<path d="M56.3548 49.5413H57.1824C57.3066 49.5413 57.41 49.4593 57.4307 49.3464L57.9894 46.8426C58.0204 46.6784 57.9066 46.5348 57.7411 46.5348H49.0715C48.937 46.5348 48.8232 46.6271 48.7921 46.7503L48.6369 47.4173C48.6059 47.5506 48.6783 47.684 48.8128 47.7251C48.8232 47.7251 48.8335 47.7354 48.8439 47.7354C49.1335 47.8482 49.5267 48.115 49.3508 48.7923L47.6541 56.4267C47.6231 56.5806 47.7369 56.7345 47.9024 56.7345H51.8027C51.9269 56.7345 52.0303 56.6524 52.051 56.5396L52.2165 55.7802C52.2372 55.6674 52.1855 55.5545 52.082 55.5032C52.0717 55.4929 52.0613 55.4929 52.0407 55.4827C51.7924 55.3595 51.4303 55.0825 51.5441 54.5489C51.5544 54.477 51.9268 52.825 51.9268 52.825H55.2375C55.3616 52.825 55.4651 52.7429 55.4858 52.63L55.7961 51.2345C55.8272 51.0703 55.7134 50.9266 55.5478 50.9266H52.351L52.9511 48.2279H55.1857C55.9099 48.2279 56.1272 48.5973 56.0858 49.2438C56.0858 49.2438 56.0858 49.254 56.0858 49.2746C56.0755 49.408 56.1996 49.5413 56.3548 49.5413Z" fill="url(#paint2_linear_10824_58699)"/>
</g>
<defs>
<filter id="filter0_f_10824_58699" x="39" y="82" width="24" height="14" filterUnits="userSpaceOnUse" color-interpolation-filters="sRGB">
<feFlood flood-opacity="0" result="BackgroundImageFix"/>
<feBlend mode="normal" in="SourceGraphic" in2="BackgroundImageFix" result="shape"/>
<feGaussianBlur stdDeviation="2" result="effect1_foregroundBlur_10824_58699"/>
</filter>
<filter id="filter1_d_10824_58699" x="0" y="0" width="102" height="102" filterUnits="userSpaceOnUse" color-interpolation-filters="sRGB">
<feFlood flood-opacity="0" result="BackgroundImageFix"/>
<feColorMatrix in="SourceAlpha" type="matrix" values="0 0 0 0 0 0 0 0 0 0 0 0 0 0 0 0 0 0 127 0" result="hardAlpha"/>
<feMorphology radius="3" operator="erode" in="SourceAlpha" result="effect1_dropShadow_10824_58699"/>
<feOffset/>
<feGaussianBlur stdDeviation="15"/>
<feComposite in2="hardAlpha" operator="out"/>
<feColorMatrix type="matrix" values="0 0 0 0 0 0 0 0 0 0 0 0 0 0 0 0 0 0 0.2 0"/>
<feBlend mode="normal" in2="BackgroundImageFix" result="effect1_dropShadow_10824_58699"/>
<feBlend mode="normal" in="SourceGraphic" in2="effect1_dropShadow_10824_58699" result="shape"/>
</filter>
<filter id="filter2_d_10824_58699" x="29.1455" y="44.3706" width="49.709" height="26.4973" filterUnits="userSpaceOnUse" color-interpolation-filters="sRGB">
<feFlood flood-opacity="0" result="BackgroundImageFix"/>
<feColorMatrix in="SourceAlpha" type="matrix" values="0 0 0 0 0 0 0 0 0 0 0 0 0 0 0 0 0 0 127 0" result="hardAlpha"/>
<feOffset dx="3" dy="6"/>
<feGaussianBlur stdDeviation="4"/>
<feColorMatrix type="matrix" values="0 0 0 0 0 0 0 0 0 0 0 0 0 0 0 0 0 0 0.09 0"/>
<feBlend mode="normal" in2="BackgroundImageFix" result="effect1_dropShadow_10824_58699"/>
<feBlend mode="normal" in="SourceGraphic" in2="effect1_dropShadow_10824_58699" result="shape"/>
</filter>
<linearGradient id="paint0_linear_10824_58699" x1="36.028" y1="46.3706" x2="65.2469" y2="56.8045" gradientUnits="userSpaceOnUse">
<stop stop-color="white"/>
<stop offset="1" stop-color="#F7EDEF"/>
</linearGradient>
<linearGradient id="paint1_linear_10824_58699" x1="36.028" y1="46.3706" x2="65.2469" y2="56.8045" gradientUnits="userSpaceOnUse">
<stop stop-color="white"/>
<stop offset="1" stop-color="#F7EDEF"/>
</linearGradient>
<linearGradient id="paint2_linear_10824_58699" x1="36.028" y1="46.3706" x2="65.2469" y2="56.8045" gradientUnits="userSpaceOnUse">
<stop stop-color="white"/>
<stop offset="1" stop-color="#F7EDEF"/>
</linearGradient>
</defs>
</svg>