<svg xmlns:xlink="http://www.w3.org/1999/xlink" xmlns="http://www.w3.org/2000/svg" width="34" height="41" viewBox="0 0 34 41">
    <g fill="none" fill-rule="evenodd">
        <path d="M17 1c4.419 0 8.42 1.8 11.316 4.713A16.076 16.076 0 0 1 33 17.083c0 4.44-1.79 8.46-4.683 11.37-2.102 2.276-3.282 3.033-4.48 3.754-1.863 1.12-2.438 1.758-2.755 2.157-1.238 1.56-1.471 2.857-1.485 2.939-.146.9-.457 1.468-.782 1.847a2.361 2.361 0 0 1-3.644-.016c-.317-.375-.624-.941-.768-1.83-.014-.083-.247-1.38-1.485-2.94-.312-.394-.875-1.026-2.34-1.908-1.632-.981-2.81-1.741-4.918-4.026A16.076 16.076 0 0 1 1 17.084c0-4.441 1.79-8.461 4.684-11.371A15.908 15.908 0 0 1 17 1z" stroke="#FFF" stroke-width="2" fill="#264F36"/>
    </g>
</svg>